<?xml version="1.0" encoding="utf-8"?>
<svg version="1.1" xmlns:xlink="http://www.w3.org/1999/xlink" width="30px" height="36px" xmlns="http://www.w3.org/2000/svg">
  <g transform="matrix(1 0 0 1 -643 -384 )">
    <path d="M 5.27496382054993 18  C 5.27496382054993 18.7644230769231  5.383502170767 19.5793269230769  5.60057887120116 20.4447115384615  L 3.40810419681621 22.6298076923077  C 2.80028943560058 21.1442307692308  2.49638205499276 19.6009615384615  2.49638205499276 18  L 2.49638205499276 15.2307692307692  C 2.49638205499276 14.8557692307692  2.63386396526773 14.53125  2.90882778581766 14.2572115384615  C 3.18379160636758 13.9831730769231  3.50940665701881 13.8461538461538  3.88567293777135 13.8461538461538  C 4.26193921852388 13.8461538461538  4.58755426917511 13.9831730769231  4.86251808972504 14.2572115384615  C 5.13748191027496 14.53125  5.27496382054993 14.8557692307692  5.27496382054993 15.2307692307692  L 5.27496382054993 18  Z M 30 6.92307692307692  C 30 7.11057692307692  29.9276410998553 7.2764423076923  29.7829232995658 7.42067307692308  L 21.9464544138929 15.2307692307692  L 21.9464544138929 18  C 21.9464544138929 19.9038461538462  21.2662807525326 21.5336538461538  19.9059334298119 22.8894230769231  C 18.5455861070912 24.2451923076923  16.9102749638205 24.9230769230769  15 24.9230769230769  C 14.2040520984081 24.9230769230769  13.4153400868307 24.7860576923077  12.6338639652677 24.5120192307692  L 10.5499276410999 26.5889423076923  C 11.9536903039074 27.3245192307692  13.4370477568741 27.6923076923077  15 27.6923076923077  C 17.6772793053546 27.6923076923077  19.9674384949349 26.7439903846154  21.870477568741 24.8473557692308  C 23.773516642547 22.9507211538462  24.7250361794501 20.6682692307692  24.7250361794501 18  L 24.7250361794501 15.2307692307692  C 24.7250361794501 14.8557692307692  24.862518089725 14.53125  25.137481910275 14.2572115384615  C 25.4124457308249 13.9831730769231  25.7380607814761 13.8461538461538  26.1143270622287 13.8461538461538  C 26.4905933429812 13.8461538461538  26.8162083936324 13.9831730769231  27.0911722141823 14.2572115384615  C 27.3661360347323 14.53125  27.5036179450072 14.8557692307692  27.5036179450072 15.2307692307692  L 27.5036179450072 18  C 27.5036179450072 21.1875  26.4363241678727 23.9603365384615  24.3017366136035 26.3185096153846  C 22.1671490593343 28.6766826923077  19.5296671490593 30.0288461538462  16.3892908827786 30.375  L 16.3892908827786 33.2307692307692  L 21.9464544138929 33.2307692307692  C 22.3227206946454 33.2307692307692  22.6483357452967 33.3677884615385  22.9232995658466 33.6418269230769  C 23.1982633863965 33.9158653846154  23.3357452966715 34.2403846153846  23.3357452966715 34.6153846153846  C 23.3357452966715 34.9903846153846  23.1982633863965 35.3149038461538  22.9232995658466 35.5889423076923  C 22.6483357452967 35.8629807692308  22.3227206946454 36  21.9464544138929 36  L 8.05354558610709 36  C 7.67727930535456 36  7.35166425470333 35.8629807692308  7.0767004341534 35.5889423076923  C 6.80173661360347 35.3149038461538  6.66425470332851 34.9903846153846  6.66425470332851 34.6153846153846  C 6.66425470332851 34.2403846153846  6.80173661360347 33.9158653846154  7.0767004341534 33.6418269230769  C 7.35166425470333 33.3677884615385  7.67727930535456 33.2307692307692  8.05354558610709 33.2307692307692  L 13.6107091172214 33.2307692307692  L 13.6107091172214 30.375  C 11.8017366136035 30.1875  10.1013024602026 29.6033653846154  8.50940665701881 28.6225961538462  L 2.99565846599132 34.1177884615385  C 2.85094066570188 34.2620192307692  2.68451519536903 34.3341346153846  2.49638205499276 34.3341346153846  C 2.3082489146165 34.3341346153846  2.14182344428365 34.2620192307692  1.99710564399421 34.1177884615385  L 0.217076700434153 32.34375  C 0.0723589001447179 32.1995192307692  0 32.0336538461538  0 31.8461538461538  C 0 31.6586538461538  0.0723589001447179 31.4927884615385  0.217076700434153 31.3485576923077  L 27.0043415340087 4.65144230769231  C 27.1490593342981 4.50721153846154  27.315484804631 4.43509615384616  27.5036179450072 4.43509615384616  C 27.6917510853835 4.43509615384616  27.8581765557164 4.50721153846154  28.0028943560058 4.65144230769231  L 29.7829232995658 6.42548076923077  C 29.9276410998553 6.56971153846154  30 6.73557692307692  30 6.92307692307692  Z M 19.0050651230101 1.27644230769231  C 20.198986975398 2.12740384615384  21.0419681620839 3.22355769230769  21.534008683068 4.56490384615384  L 8 18  L 8 6.92307692307692  C 8.05354558610709 5.01923076923077  8.73371924746744 3.38942307692307  10.0940665701881 2.03365384615384  C 11.4544138929088 0.677884615384619  13.0897250361795 0  15 0  C 16.4761215629522 0  17.8111432706223 0.425480769230773  19.0050651230101 1.27644230769231  Z " fill-rule="nonzero" fill="#d7d7d7" stroke="none" transform="matrix(1 0 0 1 643 384 )" />
  </g>
</svg>