<?xml version="1.0" encoding="utf-8"?>
<svg version="1.1" xmlns:xlink="http://www.w3.org/1999/xlink" width="24px" height="35px" xmlns="http://www.w3.org/2000/svg">
  <g transform="matrix(1 0 0 1 -646 -385 )">
    <path d="M 23.6041666666667 13.8611778846154  C 23.8680555555556 14.1276041666667  24 14.443108974359  24 14.8076923076923  L 24 17.5  C 24 20.5989583333333  22.9756944444444 23.2947716346154  20.9270833333333 25.5874399038462  C 18.8784722222222 27.8801081730769  16.3472222222222 29.1947115384615  13.3333333333333 29.53125  L 13.3333333333333 32.3076923076923  L 18.6666666666667 32.3076923076923  C 19.0277777777778 32.3076923076923  19.3402777777778 32.4409054487179  19.6041666666667 32.7073317307692  C 19.8680555555556 32.9737580128205  20 33.2892628205128  20 33.6538461538462  C 20 34.0184294871795  19.8680555555556 34.3339342948718  19.6041666666667 34.6003605769231  C 19.3402777777778 34.8667868589744  19.0277777777778 35  18.6666666666667 35  L 5.33333333333333 35  C 4.97222222222222 35  4.65972222222222 34.8667868589744  4.39583333333333 34.6003605769231  C 4.13194444444444 34.3339342948718  4 34.0184294871795  4 33.6538461538462  C 4 33.2892628205128  4.13194444444444 32.9737580128205  4.39583333333333 32.7073317307692  C 4.65972222222222 32.4409054487179  4.97222222222222 32.3076923076923  5.33333333333333 32.3076923076923  L 10.6666666666667 32.3076923076923  L 10.6666666666667 29.53125  C 7.65277777777778 29.1947115384615  5.12152777777778 27.8801081730769  3.07291666666667 25.5874399038462  C 1.02430555555556 23.2947716346154  0 20.5989583333333  0 17.5  L 0 14.8076923076923  C 0 14.443108974359  0.131944444444444 14.1276041666667  0.395833333333333 13.8611778846154  C 0.659722222222222 13.5947516025641  0.972222222222222 13.4615384615385  1.33333333333333 13.4615384615385  C 1.69444444444444 13.4615384615385  2.00694444444444 13.5947516025641  2.27083333333333 13.8611778846154  C 2.53472222222222 14.1276041666667  2.66666666666667 14.443108974359  2.66666666666667 14.8076923076923  L 2.66666666666667 17.5  C 2.66666666666667 20.0941506410256  3.57986111111111 22.3132011217949  5.40625 24.1571514423077  C 7.23263888888889 26.0011017628205  9.43055555555556 26.9230769230769  12 26.9230769230769  C 14.5694444444444 26.9230769230769  16.7673611111111 26.0011017628205  18.59375 24.1571514423077  C 20.4201388888889 22.3132011217949  21.3333333333333 20.0941506410256  21.3333333333333 17.5  L 21.3333333333333 14.8076923076923  C 21.3333333333333 14.443108974359  21.4652777777778 14.1276041666667  21.7291666666667 13.8611778846154  C 21.9930555555556 13.5947516025641  22.3055555555556 13.4615384615385  22.6666666666667 13.4615384615385  C 23.0277777777778 13.4615384615385  23.3402777777778 13.5947516025641  23.6041666666667 13.8611778846154  Z M 16.7083333333333 1.97716346153846  C 18.0138888888889 3.29527243589743  18.6666666666667 4.87980769230769  18.6666666666667 6.73076923076923  L 18.6666666666667 17.5  C 18.6666666666667 19.3509615384615  18.0138888888889 20.9354967948718  16.7083333333333 22.2536057692308  C 15.4027777777778 23.5717147435897  13.8333333333333 24.2307692307692  12 24.2307692307692  C 10.1666666666667 24.2307692307692  8.59722222222223 23.5717147435897  7.29166666666667 22.2536057692308  C 5.98611111111111 20.9354967948718  5.33333333333333 19.3509615384615  5.33333333333333 17.5  L 5.33333333333333 6.73076923076923  C 5.33333333333333 4.87980769230769  5.98611111111111 3.29527243589743  7.29166666666667 1.97716346153846  C 8.59722222222223 0.659054487179491  10.1666666666667 0  12 0  C 13.8333333333333 0  15.4027777777778 0.659054487179491  16.7083333333333 1.97716346153846  Z " fill-rule="nonzero" fill="#d7d7d7" stroke="none" transform="matrix(1 0 0 1 646 385 )" />
  </g>
</svg>